<?xml version="1.0" encoding="utf-8"?>
<!-- Generator: Adobe Illustrator 25.0.0, SVG Export Plug-In . SVG Version: 6.00 Build 0)  -->
<svg version="1.1" id="Livello_1" xmlns="http://www.w3.org/2000/svg" xmlns:xlink="http://www.w3.org/1999/xlink" x="0px" y="0px"
	 viewBox="0 0 40 40" style="enable-background:new 0 0 40 40;" xml:space="preserve">
<style type="text/css">
	.st0{fill:#808080;}
</style>
<path class="st0" d="M24.7,10.5l-16,0L6,14.7l16,0L24.7,10.5 M17.8,25.6c-0.2,0-9.5,0-10.1,0c0.3-0.5,2.1-3.3,2.2-3.4h6.6l2.7-4.2
	l-15.2,0l-2.6,4.2l3.5,0L0,29.8h20.2c0.4-0.6,7.1-11.3,7.4-11.8c0.8,1.2,1.6,2.5,2.4,3.8h-2.1L25.2,26h7.4l2.4,3.8h5L27.5,10.2
	C27.1,10.9,17.9,25.5,17.8,25.6"/>
</svg>
