<?xml version="1.0" encoding="utf-8"?>
<svg version="1.1" id="Livello_1" xmlns="http://www.w3.org/2000/svg" xmlns:xlink="http://www.w3.org/1999/xlink" x="0px" y="0px"
	 viewBox="0 0 86.6 99.9" style="enable-background:new 0 0 86.6 99.9;" xml:space="preserve">
<style type="text/css">
	.st0{fill:#808080;}
</style>
<path class="st0" d="M43.5,58.9c1.4,0,2.6,0,2.6,0c40.3,1.7,40.4,20.9,40.4,41H0c0-20.1-0.2-39.3,40.4-41c0,0,1.1,0,2.3,0H43.5z
	 M45.7,70.7h-4.8c-22.8,0.9-27.8,6-29,17.5h62.8C73.5,76.7,68.4,71.6,45.7,70.7z M43.3,0c14.3,0,26,11.8,26,26.4s-11.6,26.5-26,26.5
	s-26-11.8-26-26.5C17.3,11.8,28.9,0,43.3,0z M43.3,11.8c-8,0-14.4,6.6-14.4,14.7s6.5,14.7,14.4,14.7c8,0,14.4-6.6,14.4-14.7
	C57.7,18.3,51.3,11.8,43.3,11.8z"/>
</svg>
