<?xml version="1.0" encoding="utf-8"?>
<!-- Generator: Adobe Illustrator 25.0.0, SVG Export Plug-In . SVG Version: 6.00 Build 0)  -->
<svg version="1.1" id="Livello_1" xmlns="http://www.w3.org/2000/svg" xmlns:xlink="http://www.w3.org/1999/xlink" x="0px" y="0px"
	 viewBox="0 0 10 17" style="enable-background:new 0 0 10 17;" xml:space="preserve">
<style type="text/css">
	.st0{fill:#808080;}
</style>
<path class="st0" d="M5.2,0C0.5,0,0,2.7,0,4.7c0,0.5,0.5,1,1,0.9c0.5,0,0.9-0.4,0.9-0.9C2,3,2.2,2,5.2,2C8,2,8,3.4,8,4.7
	C8,5.4,7.5,6.1,6.8,6.4L6.5,6.4c-1.7,0.7-2.7,1.1-2.7,2V12c0,0.5,0.4,1,0.9,1c0.5,0,1-0.4,1-0.9c0,0,0,0,0-0.1V8.9
	c0.4-0.2,1.2-0.5,1.5-0.6l0.2-0.1C8.9,7.7,10,6.3,10,4.7C10,3.5,10,0,5.2,0z"/>
<path class="st0" d="M5.4,14.9H4c-0.6,0-1,0.5-1,1.1c0,0.5,0.5,1,1,1h1.4c0.6,0,1-0.4,1.1-1C6.4,15.4,6,15,5.4,14.9
	C5.4,14.9,5.4,14.9,5.4,14.9z"/>
</svg>
